<svg xmlns="http://www.w3.org/2000/svg" viewBox="0 0 1200 630" role="img" aria-label="Mohit Kuril portfolio IDE">
  <defs>
    <linearGradient id="bg" x1="0%" y1="0%" x2="100%" y2="100%">
      <stop offset="0%" stop-color="#0d1117" />
      <stop offset="100%" stop-color="#161b22" />
    </linearGradient>
  </defs>
  <rect width="1200" height="630" fill="url(#bg)" />
  <rect x="80" y="120" width="1040" height="420" rx="16" fill="#1e1e1e" stroke="#30363d" stroke-width="2" />
  <rect x="100" y="140" width="1000" height="48" rx="8" fill="#323233" />
  <circle cx="124" cy="164" r="10" fill="#ff5f57" />
  <circle cx="158" cy="164" r="10" fill="#febc2e" />
  <circle cx="192" cy="164" r="10" fill="#28c840" />
  <rect x="100" y="208" width="1000" height="312" rx="8" fill="#252526" stroke="#3e3e42" stroke-width="1" />
  <text x="140" y="290" fill="#8b949e" font-family="ui-monospace, Consolas, monospace" font-size="28">// portfolio.ide</text>
  <text x="140" y="360" fill="#ffffff" font-family="system-ui, Segoe UI, sans-serif" font-size="56" font-weight="800">Mohit Kuril</text>
  <text x="140" y="430" fill="#58a6ff" font-family="system-ui, Segoe UI, sans-serif" font-size="32" font-weight="600">Frontend &#183; React &#183; TypeScript</text>
  <text x="140" y="490" fill="#6e7681" font-family="ui-monospace, Consolas, monospace" font-size="24">mohitkuril.xyz</text>
  <!-- VS Code mark (Simple Icons CC0) on panel background -->
  <g transform="translate(900 165)">
    <rect width="220" height="260" rx="16" fill="#2d2d30" stroke="#454545" />
    <g transform="translate(38 58) scale(5.75)">
      <path
        fill="#007ACC"
        d="M23.15 2.587L18.21.21a1.494 1.494 0 0 0-1.705.29l-9.46 8.63-4.12-3.128a.999.999 0 0 0-1.276.057L.327 7.261A1 1 0 0 0 .326 8.74L3.899 12 .326 15.26a1 1 0 0 0 .001 1.479L1.65 17.94a.999.999 0 0 0 1.276.057l4.12-3.128 9.46 8.63a1.492 1.492 0 0 0 1.704.29l4.942-2.377A1.5 1.5 0 0 0 24 20.06V3.939a1.5 1.5 0 0 0-.85-1.352zm-5.146 14.861L10.826 12l7.178-5.448v10.896z"
      />
    </g>
  </g>
</svg>
